<?xml version="1.0" encoding="UTF-8"?>
<!-- Generator: visioncortex VTracer 0.6.4 -->
<svg version="1.1" xmlns="http://www.w3.org/2000/svg" width="400" height="400">
<path d="M0 0 C0.69 0.02 1.37 0.05 2.08 0.07 C4.27 0.15 6.46 0.23 8.65 0.32 C10.13 0.37 11.62 0.42 13.1 0.47 C16.74 0.6 20.38 0.74 24.02 0.88 C24.77 4.88 25.14 8.65 25.12 12.71 C25.12 13.67 25.12 14.63 25.11 15.62 C25.1 16.82 25.1 18.02 25.09 19.25 C25.07 23.09 25.04 26.93 25.02 30.88 C38.88 31.37 38.88 31.37 53.02 31.88 C53.02 21.65 53.02 11.42 53.02 0.88 C58.08 0.65 63.13 0.43 68.34 0.19 C69.93 0.11 71.52 0.03 73.16 -0.05 C75.03 -0.12 75.03 -0.12 76.95 -0.2 C78.23 -0.25 79.52 -0.31 80.84 -0.37 C84.02 -0.12 84.02 -0.12 85.7 1.03 C87.57 3.65 87.38 5.53 87.36 8.73 C87.36 9.93 87.36 11.13 87.36 12.37 C87.35 13.66 87.33 14.96 87.32 16.3 C87.31 17.64 87.31 18.98 87.3 20.32 C87.29 23.85 87.26 27.37 87.23 30.9 C87.2 34.5 87.19 38.1 87.17 41.7 C87.14 48.76 87.09 55.82 87.02 62.88 C87.9 62.88 87.9 62.88 88.79 62.87 C94.92 62.85 101.06 62.83 107.19 62.82 C109.47 62.82 111.75 62.81 114.03 62.8 C138.34 62.71 138.34 62.71 150.02 63.88 C150.05 68.42 150.07 72.96 150.08 77.5 C150.08 79.04 150.09 80.59 150.1 82.13 C150.11 84.35 150.12 86.56 150.12 88.78 C150.13 89.48 150.13 90.17 150.14 90.89 C150.14 92.55 150.09 94.22 150.02 95.88 C149.02 96.88 149.02 96.88 146.06 96.99 C144.77 96.99 143.48 96.98 142.14 96.98 C141.11 96.97 141.11 96.97 140.06 96.97 C137.86 96.97 135.66 96.95 133.46 96.94 C131.97 96.94 130.48 96.93 128.99 96.93 C125.34 96.92 121.68 96.9 118.02 96.88 C118.35 106.45 118.68 116.02 119.02 125.88 C122.61 126.77 125.17 126.98 128.81 126.94 C129.92 126.93 131.02 126.93 132.16 126.92 C133.89 126.9 133.89 126.9 135.65 126.88 C137.93 126.85 140.22 126.83 142.5 126.82 C143.51 126.8 144.52 126.79 145.56 126.78 C148.02 126.88 148.02 126.88 150.02 127.88 C150.05 132.42 150.07 136.96 150.08 141.5 C150.08 143.04 150.09 144.59 150.1 146.13 C150.11 148.35 150.12 150.56 150.12 152.78 C150.13 153.82 150.13 153.82 150.14 154.89 C150.14 156.55 150.09 158.22 150.02 159.88 C149.02 160.88 149.02 160.88 146.06 160.99 C144.77 160.99 143.48 160.98 142.14 160.98 C141.11 160.97 141.11 160.97 140.06 160.97 C137.86 160.97 135.66 160.95 133.46 160.94 C131.97 160.94 130.48 160.93 128.99 160.93 C125.34 160.92 121.68 160.9 118.02 160.88 C118.02 170.45 118.02 180.02 118.02 189.88 C128.58 189.88 139.14 189.88 150.02 189.88 C150.05 194.56 150.07 199.24 150.08 203.92 C150.08 205.52 150.09 207.11 150.1 208.7 C150.11 210.99 150.12 213.28 150.12 215.56 C150.13 216.28 150.13 217 150.14 217.73 C150.14 219.45 150.09 221.16 150.02 222.88 C148.24 224.66 145.63 224.05 143.22 224.08 C141.98 224.1 140.74 224.12 139.46 224.14 C138.09 224.16 136.73 224.18 135.36 224.2 C133.97 224.22 132.59 224.24 131.2 224.26 C127.54 224.31 123.88 224.36 120.21 224.41 C116.48 224.46 112.75 224.52 109.01 224.57 C101.68 224.68 94.35 224.78 87.02 224.88 C86.69 245.01 86.36 265.14 86.02 285.88 C80.76 285.9 75.5 285.92 70.09 285.94 C68.42 285.95 66.76 285.96 65.05 285.97 C63.75 285.97 62.46 285.97 61.12 285.98 C60.44 285.98 59.75 285.99 59.04 285.99 C57.37 285.99 55.7 285.94 54.02 285.88 C53.02 284.88 53.02 284.88 52.91 282.01 C52.92 280.76 52.92 279.51 52.93 278.22 C52.93 277.22 52.93 277.22 52.93 276.21 C52.94 274.08 52.95 271.95 52.96 269.82 C52.97 268.38 52.97 266.93 52.97 265.49 C52.98 261.96 53 258.42 53.02 254.88 C43.78 255.21 34.54 255.54 25.02 255.88 C25.06 264.63 25.06 264.63 25.11 273.38 C25.12 275.01 25.12 275.01 25.12 276.68 C25.13 277.8 25.13 278.91 25.14 280.06 C25.02 282.88 25.02 282.88 24.02 285.88 C13.13 285.88 2.24 285.88 -8.98 285.88 C-9.31 275.98 -9.64 266.08 -9.98 255.88 C-19.22 255.88 -28.46 255.88 -37.98 255.88 C-37.98 265.78 -37.98 275.68 -37.98 285.88 C-42.66 285.9 -47.34 285.92 -52.02 285.93 C-53.61 285.94 -55.21 285.95 -56.8 285.95 C-59.09 285.97 -61.37 285.97 -63.66 285.98 C-64.38 285.98 -65.09 285.99 -65.83 285.99 C-67.55 285.99 -69.26 285.94 -70.98 285.88 C-71.98 284.88 -71.98 284.88 -72.1 282.44 C-72.09 281.36 -72.09 280.28 -72.09 279.17 C-72.09 277.94 -72.09 276.72 -72.09 275.47 C-72.08 274.12 -72.08 272.78 -72.07 271.44 C-72.07 270.07 -72.07 268.71 -72.07 267.34 C-72.07 263.74 -72.06 260.13 -72.05 256.53 C-72.04 252.86 -72.03 249.19 -72.03 245.51 C-72.01 238.3 -72 231.09 -71.98 223.88 C-73.14 223.88 -73.14 223.88 -74.32 223.89 C-81.61 223.91 -88.89 223.92 -96.18 223.93 C-99.92 223.94 -103.67 223.94 -107.41 223.95 C-111.02 223.97 -114.63 223.97 -118.25 223.97 C-119.63 223.98 -121.01 223.98 -122.39 223.98 C-124.32 223.99 -126.24 223.99 -128.17 223.99 C-129.82 224 -129.82 224 -131.5 224 C-133.98 223.88 -133.98 223.88 -134.98 222.88 C-135.07 220.43 -135.09 218.01 -135.07 215.56 C-135.07 214.83 -135.07 214.1 -135.07 213.35 C-135.06 211 -135.05 208.66 -135.04 206.32 C-135.03 204.73 -135.03 203.15 -135.03 201.56 C-135.01 197.67 -135 193.77 -134.98 189.88 C-130.74 189.85 -126.5 189.84 -122.27 189.82 C-120.83 189.82 -119.39 189.81 -117.94 189.8 C-115.87 189.79 -113.8 189.79 -111.73 189.78 C-110.49 189.78 -109.24 189.77 -107.96 189.77 C-104.98 189.88 -104.98 189.88 -102.98 190.88 C-102.98 180.98 -102.98 171.08 -102.98 160.88 C-113.54 160.88 -124.1 160.88 -134.98 160.88 C-134.98 149.99 -134.98 139.1 -134.98 127.88 C-124.42 127.88 -113.86 127.88 -102.98 127.88 C-103.02 118.43 -103.02 118.43 -103.07 108.97 C-103.07 107.8 -103.07 106.63 -103.07 105.42 C-103.08 104.21 -103.08 103.01 -103.09 101.77 C-102.98 98.88 -102.98 98.88 -101.98 96.88 C-102.94 96.88 -103.9 96.89 -104.9 96.89 C-108.46 96.91 -112.03 96.92 -115.59 96.93 C-117.14 96.94 -118.68 96.95 -120.23 96.95 C-122.45 96.97 -124.66 96.97 -126.88 96.98 C-127.92 96.98 -127.92 96.98 -128.98 96.99 C-130.65 96.99 -132.31 96.94 -133.98 96.88 C-135.65 95.2 -135.1 93.15 -135.12 90.91 C-135.11 90.22 -135.11 89.53 -135.11 88.82 C-135.11 88.11 -135.11 87.4 -135.11 86.68 C-135.11 85.18 -135.11 83.68 -135.11 82.19 C-135.1 79.89 -135.11 77.59 -135.11 75.29 C-135.11 73.84 -135.11 72.39 -135.11 70.94 C-135.11 70.25 -135.11 69.56 -135.12 68.85 C-135.09 63.99 -135.09 63.99 -133.98 62.88 C-132.04 62.78 -130.11 62.76 -128.17 62.77 C-126.91 62.77 -125.65 62.77 -124.36 62.77 C-123.01 62.77 -121.66 62.78 -120.32 62.78 C-119.1 62.78 -117.88 62.78 -116.63 62.78 C-112.06 62.79 -107.48 62.8 -102.91 62.82 C-92.7 62.84 -82.5 62.86 -71.98 62.88 C-71.98 42.42 -71.98 21.96 -71.98 0.88 C-61.09 0.88 -50.2 0.88 -38.98 0.88 C-38.03 4.68 -37.93 7.3 -38.1 11.18 C-38.14 12.26 -38.18 13.35 -38.23 14.47 C-38.32 16.53 -38.32 16.53 -38.41 18.63 C-38.69 25.19 -38.69 25.19 -38.98 31.88 C-29.08 31.88 -19.18 31.88 -8.98 31.88 C-8.98 21.65 -8.98 11.42 -8.98 0.88 C-5.98 -0.62 -3.33 -0.12 0 0 Z M-69.83 65.01 C-71.52 67.76 -71.33 69.92 -71.3 73.12 C-71.3 74.43 -71.29 75.74 -71.29 77.08 C-71.27 78.54 -71.25 79.99 -71.23 81.45 C-71.21 83 -71.2 84.55 -71.2 86.1 C-71.17 90.27 -71.13 94.43 -71.08 98.59 C-71.04 102.5 -71.01 106.4 -70.98 110.3 C-70.89 121.72 -70.78 133.15 -70.66 144.57 C-70.44 170.08 -70.21 195.59 -69.98 221.88 C-18.83 221.88 32.32 221.88 85.02 221.88 C85.52 144.66 85.52 144.66 86.02 65.88 C81.49 64.06 79.46 63.63 74.79 63.62 C73.53 63.61 72.27 63.6 70.98 63.6 C69.59 63.6 68.21 63.6 66.83 63.6 C65.36 63.6 63.9 63.59 62.43 63.59 C58.47 63.58 54.5 63.57 50.53 63.58 C47.21 63.58 43.9 63.57 40.59 63.57 C32.78 63.56 24.96 63.56 17.15 63.56 C9.09 63.57 1.02 63.56 -7.04 63.54 C-13.97 63.52 -20.89 63.51 -27.81 63.52 C-31.95 63.52 -36.08 63.51 -40.22 63.5 C-44.1 63.49 -47.99 63.49 -51.87 63.5 C-53.3 63.51 -54.73 63.5 -56.16 63.49 C-58.1 63.48 -60.05 63.49 -61.99 63.5 C-63.08 63.5 -64.17 63.5 -65.29 63.5 C-67.95 63.69 -67.95 63.69 -69.83 65.01 Z " fill="#43B2FB" transform="translate(192.9765625,57.12109375)"/>
<path d="M0 0 C0 20.46 0 40.92 0 62 C-51.48 62 -102.96 62 -156 62 C-155.67 41.87 -155.34 21.74 -155 1 C-145.76 1 -136.52 1 -127 1 C-126.67 11.56 -126.34 22.12 -126 33 C-115.11 33 -104.22 33 -93 33 C-93 22.44 -93 11.88 -93 1 C-83.1 1 -73.2 1 -63 1 C-63 11.23 -63 21.46 -63 32 C-52.44 32 -41.88 32 -31 32 C-31 21.44 -31 10.88 -31 0 C-26.44 -0.19 -21.88 -0.37 -17.19 -0.56 C-15.75 -0.62 -14.32 -0.69 -12.84 -0.75 C-11.71 -0.79 -10.58 -0.83 -9.42 -0.88 C-7.68 -0.95 -7.68 -0.95 -5.91 -1.02 C-3 -1 -3 -1 0 0 Z " fill="#43B3FE" transform="translate(278,58)"/>
<path d="M0 0 C1.05 0 2.09 0 3.17 0.01 C4.35 0.01 5.53 0.01 6.75 0.01 C8.03 0.01 9.32 0.02 10.64 0.02 C12.61 0.02 12.61 0.02 14.61 0.03 C18.09 0.03 21.58 0.04 25.06 0.05 C28.61 0.06 32.16 0.07 35.72 0.07 C42.69 0.08 49.67 0.1 56.64 0.12 C56.64 10.02 56.64 19.92 56.64 30.12 C46.74 30.12 36.84 30.12 26.64 30.12 C26.64 41.01 26.64 51.9 26.64 63.12 C29.61 62.63 29.61 62.63 32.64 62.12 C34.66 62.04 36.68 62.01 38.69 62.02 C39.69 62.03 40.69 62.03 41.73 62.03 C43.6 62.04 43.6 62.04 45.51 62.06 C51.52 62.09 51.52 62.09 57.64 62.12 C57.64 72.68 57.64 83.24 57.64 94.12 C47.41 94.12 37.18 94.12 26.64 94.12 C26.64 104.68 26.64 115.24 26.64 126.12 C36.54 126.12 46.44 126.12 56.64 126.12 C56.64 136.02 56.64 145.92 56.64 156.12 C26.94 155.63 26.94 155.63 -3.36 155.12 C-3.38 135.06 -3.4 115 -3.41 94.93 C-3.42 85.62 -3.42 76.31 -3.44 66.99 C-3.45 58.88 -3.45 50.76 -3.45 42.65 C-3.46 38.35 -3.46 34.05 -3.47 29.75 C-3.47 25.7 -3.47 21.66 -3.47 17.62 C-3.47 16.13 -3.48 14.64 -3.48 13.16 C-3.48 11.13 -3.48 9.11 -3.48 7.09 C-3.48 5.95 -3.48 4.82 -3.48 3.65 C-3.32 0.35 -3.29 0.17 0 0 Z " fill="#43B3FE" transform="translate(283.36012268066406,121.87974548339844)"/>
<path d="M0 0 C50.82 0 101.64 0 154 0 C154 19.8 154 39.6 154 60 C144.76 60 135.52 60 126 60 C124.56 57.13 124.89 54.66 124.9 51.46 C124.9 50.29 124.91 49.12 124.91 47.91 C124.92 46.41 124.93 44.92 124.94 43.38 C124.96 38.63 124.98 33.89 125 29 C114.11 29 103.22 29 92 29 C92 39.23 92 49.46 92 60 C81.77 60 71.54 60 61 60 C61 49.77 61 39.54 61 29 C50.11 29 39.22 29 28 29 C28 39.23 28 49.46 28 60 C22.18 60.03 22.18 60.03 16.25 60.06 C15.03 60.07 13.82 60.08 12.56 60.09 C11.12 60.09 11.12 60.09 9.64 60.1 C8.66 60.1 7.67 60.11 6.66 60.11 C4 60 4 60 0 59 C0 39.53 0 20.06 0 0 Z " fill="#43B3FE" transform="translate(123,281)"/>
<path d="M0 0 C0.69 0.02 1.37 0.05 2.08 0.07 C4.27 0.15 6.46 0.23 8.65 0.32 C10.13 0.37 11.62 0.42 13.1 0.47 C16.74 0.6 20.38 0.74 24.02 0.88 C24.77 4.88 25.14 8.65 25.12 12.71 C25.12 13.67 25.12 14.63 25.11 15.62 C25.1 16.82 25.1 18.02 25.09 19.25 C25.07 23.09 25.04 26.93 25.02 30.88 C38.88 31.37 38.88 31.37 53.02 31.88 C53.02 21.65 53.02 11.42 53.02 0.88 C53.35 0.88 53.68 0.88 54.02 0.88 C54.02 11.44 54.02 22 54.02 32.88 C43.46 32.88 32.9 32.88 22.02 32.88 C22.02 22.65 22.02 12.42 22.02 1.88 C12.12 1.88 2.22 1.88 -7.98 1.88 C-7.98 12.44 -7.98 23 -7.98 33.88 C-18.87 33.88 -29.76 33.88 -40.98 33.88 C-42.44 30.96 -42.09 28.38 -42.07 25.12 C-42.07 24.46 -42.07 23.79 -42.07 23.11 C-42.06 20.99 -42.05 18.87 -42.04 16.75 C-42.03 15.32 -42.03 13.88 -42.03 12.45 C-42.02 8.92 -42 5.4 -41.98 1.88 C-51.22 1.88 -60.46 1.88 -69.98 1.88 C-69.98 21.68 -69.98 41.48 -69.98 61.88 C6.75 62.37 6.75 62.37 85.02 62.88 C85.02 42.42 85.02 21.96 85.02 0.88 C87.02 2.88 87.02 2.88 87.26 5.4 C87.26 6.46 87.26 7.52 87.25 8.61 C87.25 10.42 87.25 10.42 87.25 12.25 C87.24 13.56 87.23 14.86 87.22 16.2 C87.22 17.54 87.21 18.88 87.21 20.23 C87.2 23.76 87.18 27.3 87.16 30.83 C87.14 34.44 87.13 38.04 87.12 41.65 C87.1 48.73 87.07 55.8 87.02 62.88 C87.9 62.88 87.9 62.88 88.79 62.87 C94.92 62.85 101.06 62.83 107.19 62.82 C109.47 62.82 111.75 62.81 114.03 62.8 C138.34 62.71 138.34 62.71 150.02 63.88 C150.05 68.42 150.07 72.96 150.08 77.5 C150.08 79.04 150.09 80.59 150.1 82.13 C150.11 84.35 150.12 86.56 150.12 88.78 C150.13 89.48 150.13 90.17 150.14 90.89 C150.14 92.55 150.09 94.22 150.02 95.88 C149.02 96.88 149.02 96.88 146.06 96.99 C144.77 96.99 143.48 96.98 142.14 96.98 C141.11 96.97 141.11 96.97 140.06 96.97 C137.86 96.97 135.66 96.95 133.46 96.94 C131.97 96.94 130.48 96.93 128.99 96.93 C125.34 96.92 121.68 96.9 118.02 96.88 C118.14 100.97 118.27 105.07 118.4 109.16 C118.44 110.55 118.48 111.94 118.52 113.34 C118.58 115.34 118.64 117.34 118.71 119.34 C118.74 120.54 118.78 121.75 118.82 122.99 C118.83 125.82 118.83 125.82 120.02 127.88 C119.03 127.88 118.04 127.88 117.02 127.88 C117.02 116.99 117.02 106.1 117.02 94.88 C126.92 94.88 136.82 94.88 147.02 94.88 C147.02 84.98 147.02 75.08 147.02 64.88 C127.55 65.21 108.08 65.54 88.02 65.88 C87.53 142.11 87.53 142.11 87.02 219.88 C105.83 219.88 124.64 219.88 144.02 219.88 C145.01 220.21 146 220.54 147.02 220.88 C147.02 210.98 147.02 201.08 147.02 190.88 C137.12 190.88 127.22 190.88 117.02 190.88 C117.02 180.32 117.02 169.76 117.02 158.88 C127.25 158.88 137.48 158.88 148.02 158.88 C148.02 148.65 148.02 138.42 148.02 127.88 C148.68 127.88 149.34 127.88 150.02 127.88 C150.05 132.42 150.07 136.96 150.08 141.5 C150.08 143.04 150.09 144.59 150.1 146.13 C150.11 148.35 150.12 150.56 150.12 152.78 C150.13 153.82 150.13 153.82 150.14 154.89 C150.14 156.55 150.09 158.22 150.02 159.88 C149.02 160.88 149.02 160.88 146.06 160.99 C144.77 160.99 143.48 160.98 142.14 160.98 C141.11 160.97 141.11 160.97 140.06 160.97 C137.86 160.97 135.66 160.95 133.46 160.94 C131.97 160.94 130.48 160.93 128.99 160.93 C125.34 160.92 121.68 160.9 118.02 160.88 C118.02 170.45 118.02 180.02 118.02 189.88 C128.58 189.88 139.14 189.88 150.02 189.88 C150.05 194.56 150.07 199.24 150.08 203.92 C150.08 205.52 150.09 207.11 150.1 208.7 C150.11 210.99 150.12 213.28 150.12 215.56 C150.13 216.28 150.13 217 150.14 217.73 C150.14 219.45 150.09 221.16 150.02 222.88 C148.24 224.66 145.63 224.05 143.22 224.08 C141.98 224.1 140.74 224.12 139.46 224.14 C138.09 224.16 136.73 224.18 135.36 224.2 C133.97 224.22 132.59 224.24 131.2 224.26 C127.54 224.31 123.88 224.36 120.21 224.41 C116.48 224.46 112.75 224.52 109.01 224.57 C101.68 224.68 94.35 224.78 87.02 224.88 C86.69 245.01 86.36 265.14 86.02 285.88 C80.76 285.9 75.5 285.92 70.09 285.94 C68.42 285.95 66.76 285.96 65.05 285.97 C63.75 285.97 62.46 285.97 61.12 285.98 C60.44 285.98 59.75 285.99 59.04 285.99 C57.37 285.99 55.7 285.94 54.02 285.88 C53.02 284.88 53.02 284.88 52.91 282.01 C52.92 280.76 52.92 279.51 52.93 278.22 C52.93 277.22 52.93 277.22 52.93 276.21 C52.94 274.08 52.95 271.95 52.96 269.82 C52.97 268.38 52.97 266.93 52.97 265.49 C52.98 261.96 53 258.42 53.02 254.88 C43.78 255.21 34.54 255.54 25.02 255.88 C25.06 264.63 25.06 264.63 25.11 273.38 C25.12 275.01 25.12 275.01 25.12 276.68 C25.13 277.8 25.13 278.91 25.14 280.06 C25.02 282.88 25.02 282.88 24.02 285.88 C13.13 285.88 2.24 285.88 -8.98 285.88 C-8.98 285.22 -8.98 284.56 -8.98 283.88 C1.25 283.88 11.48 283.88 22.02 283.88 C22.02 273.65 22.02 263.42 22.02 252.88 C32.91 252.88 43.8 252.88 55.02 252.88 C55.35 263.11 55.68 273.34 56.02 283.88 C65.26 283.88 74.5 283.88 84.02 283.88 C84.02 264.08 84.02 244.28 84.02 223.88 C33.2 223.88 -17.62 223.88 -69.98 223.88 C-69.98 243.35 -69.98 262.82 -69.98 282.88 C-60.74 283.21 -51.5 283.54 -41.98 283.88 C-41.98 273.65 -41.98 263.42 -41.98 252.88 C-31.09 252.88 -20.2 252.88 -8.98 252.88 C-9.31 253.87 -9.64 254.86 -9.98 255.88 C-19.22 255.88 -28.46 255.88 -37.98 255.88 C-37.98 265.78 -37.98 275.68 -37.98 285.88 C-42.66 285.9 -47.34 285.92 -52.02 285.93 C-53.61 285.94 -55.21 285.95 -56.8 285.95 C-59.09 285.97 -61.37 285.97 -63.66 285.98 C-64.38 285.98 -65.09 285.99 -65.83 285.99 C-67.55 285.99 -69.26 285.94 -70.98 285.88 C-71.98 284.88 -71.98 284.88 -72.1 282.44 C-72.09 281.36 -72.09 280.28 -72.09 279.17 C-72.09 277.94 -72.09 276.72 -72.09 275.47 C-72.08 274.12 -72.08 272.78 -72.07 271.44 C-72.07 270.07 -72.07 268.71 -72.07 267.34 C-72.07 263.74 -72.06 260.13 -72.05 256.53 C-72.04 252.86 -72.03 249.19 -72.03 245.51 C-72.01 238.3 -72 231.09 -71.98 223.88 C-73.14 223.88 -73.14 223.88 -74.32 223.89 C-81.61 223.91 -88.89 223.92 -96.18 223.93 C-99.92 223.94 -103.67 223.94 -107.41 223.95 C-111.02 223.97 -114.63 223.97 -118.25 223.97 C-119.63 223.98 -121.01 223.98 -122.39 223.98 C-124.32 223.99 -126.24 223.99 -128.17 223.99 C-129.82 224 -129.82 224 -131.5 224 C-133.98 223.88 -133.98 223.88 -134.98 222.88 C-135.07 220.43 -135.09 218.01 -135.07 215.56 C-135.07 214.83 -135.07 214.1 -135.07 213.35 C-135.06 211 -135.05 208.66 -135.04 206.32 C-135.03 204.73 -135.03 203.15 -135.03 201.56 C-135.02 197.67 -135 193.77 -134.98 189.88 C-125.08 189.88 -115.18 189.88 -104.98 189.88 C-104.98 190.21 -104.98 190.54 -104.98 190.88 C-114.55 190.88 -124.12 190.88 -133.98 190.88 C-133.98 201.11 -133.98 211.34 -133.98 221.88 C-113.52 221.88 -93.06 221.88 -71.98 221.88 C-72.31 170.4 -72.64 118.92 -72.98 65.88 C-103.17 65.38 -103.17 65.38 -133.98 64.88 C-133.98 74.78 -133.98 84.68 -133.98 94.88 C-123.09 94.88 -112.2 94.88 -100.98 94.88 C-100.98 106.1 -100.98 117.32 -100.98 128.88 C-101.97 128.55 -102.96 128.22 -103.98 127.88 C-103.86 123.79 -103.73 119.69 -103.6 115.6 C-103.56 114.21 -103.52 112.81 -103.48 111.42 C-103.42 109.42 -103.36 107.42 -103.29 105.42 C-103.26 104.21 -103.22 103.01 -103.18 101.77 C-102.98 98.88 -102.98 98.88 -101.98 96.88 C-102.94 96.88 -103.9 96.89 -104.9 96.89 C-108.46 96.91 -112.03 96.92 -115.59 96.93 C-117.14 96.94 -118.68 96.95 -120.23 96.95 C-122.45 96.97 -124.66 96.97 -126.88 96.98 C-127.92 96.98 -127.92 96.98 -128.98 96.99 C-130.65 96.99 -132.31 96.94 -133.98 96.88 C-135.65 95.2 -135.1 93.15 -135.12 90.91 C-135.11 90.22 -135.11 89.53 -135.11 88.82 C-135.11 88.11 -135.11 87.4 -135.11 86.68 C-135.11 85.18 -135.11 83.68 -135.11 82.19 C-135.1 79.89 -135.11 77.59 -135.11 75.29 C-135.11 73.84 -135.11 72.39 -135.11 70.94 C-135.11 70.25 -135.11 69.56 -135.12 68.85 C-135.09 63.99 -135.09 63.99 -133.98 62.88 C-132.04 62.78 -130.11 62.76 -128.17 62.77 C-126.91 62.77 -125.65 62.77 -124.36 62.77 C-123.01 62.77 -121.66 62.78 -120.32 62.78 C-119.1 62.78 -117.88 62.78 -116.63 62.78 C-112.06 62.79 -107.48 62.8 -102.91 62.82 C-92.7 62.84 -82.5 62.86 -71.98 62.88 C-71.98 42.42 -71.98 21.96 -71.98 0.88 C-61.09 0.88 -50.2 0.88 -38.98 0.88 C-38.03 4.68 -37.93 7.3 -38.1 11.18 C-38.14 12.26 -38.18 13.35 -38.23 14.47 C-38.32 16.53 -38.32 16.53 -38.41 18.63 C-38.69 25.19 -38.69 25.19 -38.98 31.88 C-29.08 31.88 -19.18 31.88 -8.98 31.88 C-8.98 21.65 -8.98 11.42 -8.98 0.88 C-5.98 -0.62 -3.33 -0.12 0 0 Z M-69.83 65.01 C-71.52 67.76 -71.33 69.92 -71.3 73.12 C-71.3 74.43 -71.29 75.74 -71.29 77.08 C-71.27 78.54 -71.25 79.99 -71.23 81.45 C-71.21 83 -71.2 84.55 -71.2 86.1 C-71.17 90.27 -71.13 94.43 -71.08 98.59 C-71.04 102.5 -71.01 106.4 -70.98 110.3 C-70.89 121.72 -70.78 133.15 -70.66 144.57 C-70.44 170.08 -70.21 195.59 -69.98 221.88 C-18.83 221.88 32.32 221.88 85.02 221.88 C85.52 144.66 85.52 144.66 86.02 65.88 C81.49 64.06 79.46 63.63 74.79 63.62 C73.53 63.61 72.27 63.6 70.98 63.6 C69.59 63.6 68.21 63.6 66.83 63.6 C65.36 63.6 63.9 63.59 62.43 63.59 C58.47 63.58 54.5 63.57 50.53 63.58 C47.21 63.58 43.9 63.57 40.59 63.57 C32.78 63.56 24.96 63.56 17.15 63.56 C9.09 63.57 1.02 63.56 -7.04 63.54 C-13.97 63.52 -20.89 63.51 -27.81 63.52 C-31.95 63.52 -36.08 63.51 -40.22 63.5 C-44.1 63.49 -47.99 63.49 -51.87 63.5 C-53.3 63.51 -54.73 63.5 -56.16 63.49 C-58.1 63.48 -60.05 63.49 -61.99 63.5 C-63.08 63.5 -64.17 63.5 -65.29 63.5 C-67.95 63.69 -67.95 63.69 -69.83 65.01 Z " fill="#286189" transform="translate(192.9765625,57.12109375)"/>
<path d="M0 0 C9.9 0 19.8 0 30 0 C30 0.33 30 0.66 30 1 C20.43 1 10.86 1 1 1 C1 11.23 1 21.46 1 32 C94.06 32 187.12 32 283 32 C283 21.44 283 10.88 283 0 C283.66 0 284.32 0 285 0 C285.02 4.68 285.04 9.36 285.05 14.04 C285.06 15.64 285.07 17.23 285.08 18.83 C285.09 21.11 285.09 23.4 285.1 25.68 C285.1 26.4 285.11 27.12 285.11 27.86 C285.11 29.57 285.06 31.29 285 33 C283.22 34.78 280.6 34.17 278.2 34.21 C276.95 34.23 275.71 34.25 274.43 34.27 C273.07 34.28 271.7 34.3 270.34 34.32 C268.95 34.34 267.56 34.36 266.17 34.38 C262.51 34.43 258.85 34.48 255.19 34.53 C251.46 34.58 247.72 34.64 243.99 34.69 C236.66 34.8 229.33 34.9 222 35 C221.67 55.13 221.34 75.26 221 96 C215.74 96.02 210.48 96.04 205.06 96.06 C203.4 96.07 201.74 96.08 200.03 96.09 C198.73 96.09 197.43 96.1 196.1 96.1 C195.41 96.1 194.73 96.11 194.02 96.11 C192.35 96.11 190.67 96.06 189 96 C188 95 188 95 187.89 92.13 C187.89 90.88 187.9 89.63 187.9 88.34 C187.9 87.34 187.9 87.34 187.91 86.33 C187.91 84.2 187.92 82.07 187.94 79.94 C187.94 78.5 187.95 77.06 187.95 75.62 C187.96 72.08 187.98 68.54 188 65 C178.76 65.33 169.52 65.66 160 66 C160.04 74.75 160.04 74.75 160.09 83.5 C160.09 85.13 160.09 85.13 160.1 86.8 C160.1 87.92 160.11 89.03 160.11 90.18 C160 93 160 93 159 96 C148.11 96 137.22 96 126 96 C126 95.34 126 94.68 126 94 C136.23 94 146.46 94 157 94 C157 83.77 157 73.54 157 63 C167.89 63 178.78 63 190 63 C190.33 73.23 190.66 83.46 191 94 C200.24 94 209.48 94 219 94 C219 74.2 219 54.4 219 34 C168.18 34 117.36 34 65 34 C65 53.47 65 72.94 65 93 C78.86 93.5 78.86 93.5 93 94 C93 83.77 93 73.54 93 63 C103.89 63 114.78 63 126 63 C125.67 63.99 125.34 64.98 125 66 C115.76 66 106.52 66 97 66 C97 75.9 97 85.8 97 96 C92.32 96.02 87.64 96.04 82.96 96.05 C81.36 96.06 79.77 96.07 78.17 96.08 C75.89 96.09 73.6 96.09 71.32 96.1 C70.6 96.1 69.88 96.11 69.14 96.11 C67.43 96.11 65.71 96.06 64 96 C63 95 63 95 62.88 92.56 C62.88 91.48 62.88 90.4 62.89 89.29 C62.89 88.07 62.89 86.84 62.89 85.59 C62.89 84.24 62.9 82.9 62.9 81.56 C62.9 80.19 62.91 78.83 62.91 77.46 C62.91 73.86 62.92 70.26 62.93 66.65 C62.94 62.98 62.95 59.31 62.95 55.63 C62.96 48.42 62.98 41.21 63 34 C61.84 34 61.84 34 60.65 34.01 C53.37 34.03 46.08 34.04 38.8 34.05 C35.06 34.06 31.31 34.06 27.56 34.08 C23.95 34.09 20.34 34.09 16.73 34.09 C15.35 34.1 13.97 34.1 12.59 34.11 C10.66 34.11 8.73 34.11 6.8 34.11 C5.71 34.12 4.61 34.12 3.47 34.12 C1 34 1 34 0 33 C-0.09 30.55 -0.12 28.13 -0.1 25.68 C-0.1 24.95 -0.09 24.22 -0.09 23.47 C-0.09 21.12 -0.08 18.78 -0.06 16.44 C-0.06 14.85 -0.05 13.27 -0.05 11.68 C-0.04 7.79 -0.02 3.89 0 0 Z " fill="#3F89BB" transform="translate(58,247)"/>
<path d="M0 0 C21.12 0 42.24 0 64 0 C64 10.56 64 21.12 64 32 C63 33 63 33 60.04 33.11 C58.75 33.11 57.45 33.1 56.12 33.1 C55.09 33.1 55.09 33.1 54.04 33.09 C51.84 33.09 49.64 33.08 47.44 33.06 C45.95 33.06 44.46 33.05 42.97 33.05 C39.31 33.04 35.66 33.02 32 33 C32.12 37.09 32.24 41.19 32.37 45.28 C32.42 46.67 32.46 48.07 32.5 49.46 C32.56 51.46 32.62 53.46 32.68 55.46 C32.74 57.27 32.74 57.27 32.79 59.11 C32.81 61.94 32.81 61.94 34 64 C33.01 64 32.02 64 31 64 C31 53.11 31 42.22 31 31 C40.9 31 50.8 31 61 31 C61 21.1 61 11.2 61 1 C41.53 1.33 22.06 1.66 2 2 C1.67 52.82 1.34 103.64 1 156 C19.81 156 38.62 156 58 156 C58.99 156.33 59.98 156.66 61 157 C61 147.1 61 137.2 61 127 C51.1 127 41.2 127 31 127 C31 116.44 31 105.88 31 95 C41.23 95 51.46 95 62 95 C62 84.77 62 74.54 62 64 C62.66 64 63.32 64 64 64 C64.02 68.54 64.04 73.08 64.05 77.62 C64.06 79.16 64.07 80.71 64.08 82.25 C64.09 84.47 64.09 86.69 64.1 88.9 C64.1 89.6 64.11 90.29 64.11 91.01 C64.11 92.67 64.06 94.34 64 96 C63 97 63 97 60.04 97.11 C58.75 97.11 57.45 97.1 56.12 97.1 C55.09 97.1 55.09 97.1 54.04 97.09 C51.84 97.09 49.64 97.08 47.44 97.06 C45.95 97.06 44.46 97.05 42.97 97.05 C39.31 97.04 35.66 97.02 32 97 C32 106.57 32 116.14 32 126 C41.9 126 51.8 126 62 126 C62 136.56 62 147.12 62 158 C41.21 158 20.42 158 -1 158 C-1.02 137.99 -1.04 117.98 -1.05 97.97 C-1.06 88.68 -1.06 79.39 -1.08 70.1 C-1.09 62 -1.09 53.9 -1.09 45.81 C-1.1 41.52 -1.1 37.23 -1.11 32.94 C-1.11 28.91 -1.11 24.87 -1.11 20.84 C-1.11 19.36 -1.12 17.87 -1.12 16.39 C-1.12 14.37 -1.12 12.35 -1.12 10.33 C-1.12 9.2 -1.12 8.06 -1.12 6.9 C-1 4 -1 4 0 0 Z " fill="#4BA3DE" transform="translate(279,121)"/>
<path d="M0 0 C0.69 0.02 1.37 0.05 2.08 0.07 C4.27 0.15 6.46 0.23 8.65 0.32 C10.13 0.37 11.62 0.42 13.1 0.47 C16.74 0.6 20.38 0.74 24.02 0.88 C24.77 4.88 25.14 8.65 25.12 12.71 C25.12 13.67 25.12 14.63 25.11 15.62 C25.1 16.82 25.1 18.02 25.09 19.25 C25.07 23.09 25.04 26.93 25.02 30.88 C38.88 31.37 38.88 31.37 53.02 31.88 C53.02 21.65 53.02 11.42 53.02 0.88 C53.35 0.88 53.68 0.88 54.02 0.88 C54.02 11.44 54.02 22 54.02 32.88 C43.46 32.88 32.9 32.88 22.02 32.88 C22.02 22.65 22.02 12.42 22.02 1.88 C12.12 1.88 2.22 1.88 -7.98 1.88 C-7.98 12.44 -7.98 23 -7.98 33.88 C-18.87 33.88 -29.76 33.88 -40.98 33.88 C-42.44 30.96 -42.09 28.38 -42.07 25.12 C-42.07 24.46 -42.07 23.79 -42.07 23.11 C-42.06 20.99 -42.05 18.87 -42.04 16.75 C-42.03 15.32 -42.03 13.88 -42.03 12.45 C-42.02 8.92 -42 5.4 -41.98 1.88 C-51.22 1.88 -60.46 1.88 -69.98 1.88 C-69.98 21.68 -69.98 41.48 -69.98 61.88 C-70.31 61.88 -70.64 61.88 -70.98 61.88 C-70.98 41.75 -70.98 21.62 -70.98 0.88 C-60.42 0.88 -49.86 0.88 -38.98 0.88 C-38.03 4.68 -37.93 7.3 -38.1 11.18 C-38.14 12.26 -38.18 13.35 -38.23 14.47 C-38.32 16.53 -38.32 16.53 -38.41 18.63 C-38.69 25.19 -38.69 25.19 -38.98 31.88 C-29.08 31.88 -19.18 31.88 -8.98 31.88 C-8.98 21.65 -8.98 11.42 -8.98 0.88 C-5.98 -0.62 -3.33 -0.12 0 0 Z " fill="#3D85B6" transform="translate(192.9765625,57.12109375)"/>
<path d="M0 0 C0.66 0 1.32 0 2 0 C2.02 4.68 2.04 9.36 2.05 14.04 C2.06 15.64 2.07 17.23 2.08 18.83 C2.09 21.11 2.09 23.4 2.1 25.68 C2.1 26.4 2.11 27.12 2.11 27.86 C2.11 29.57 2.06 31.29 2 33 C0.22 34.78 -2.4 34.17 -4.8 34.21 C-6.05 34.23 -7.29 34.25 -8.57 34.27 C-9.93 34.28 -11.3 34.3 -12.66 34.32 C-14.05 34.34 -15.44 34.36 -16.83 34.38 C-20.49 34.43 -24.15 34.48 -27.81 34.53 C-31.54 34.58 -35.28 34.64 -39.01 34.69 C-46.34 34.8 -53.67 34.9 -61 35 C-61.33 55.13 -61.66 75.26 -62 96 C-72.56 96 -83.12 96 -94 96 C-94 95.67 -94 95.34 -94 95 C-83.77 95 -73.54 95 -63 95 C-63 74.21 -63 53.42 -63 32 C-42.21 32 -21.42 32 0 32 C0 21.44 0 10.88 0 0 Z " fill="#0F3E5D" transform="translate(341,247)"/>
<path d="M0 0 C10.56 0 21.12 0 32 0 C32 10.56 32 21.12 32 32 C31.67 32 31.34 32 31 32 C31 22.1 31 12.2 31 2 C21.76 2.33 12.52 2.66 3 3 C3.04 11.75 3.04 11.75 3.09 20.5 C3.09 21.59 3.1 22.68 3.1 23.8 C3.1 24.92 3.11 26.03 3.11 27.18 C3 30 3 30 2 33 C-8.89 33 -19.78 33 -31 33 C-31 32.34 -31 31.68 -31 31 C-20.77 31 -10.54 31 0 31 C0 20.77 0 10.54 0 0 Z " fill="#1F5173" transform="translate(215,310)"/>
<path d="M0 0 C2 2 2 2 2.24 4.52 C2.24 5.58 2.23 6.64 2.23 7.73 C2.23 8.94 2.23 10.14 2.23 11.37 C2.22 12.68 2.21 13.98 2.2 15.32 C2.19 16.66 2.19 18.01 2.19 19.35 C2.18 22.88 2.16 26.42 2.14 29.95 C2.12 33.56 2.11 37.16 2.1 40.77 C2.08 47.85 2.04 54.92 2 62 C18.17 62 34.34 62 51 62 C51 62.33 51 62.66 51 63 C34.5 63 18 63 1 63 C0.67 63.66 0.34 64.32 0 65 C-0.78 64.76 -0.78 64.76 -1.58 64.51 C-4.68 63.86 -7.62 63.84 -10.79 63.79 C-11.46 63.78 -12.14 63.77 -12.83 63.76 C-15.05 63.73 -17.27 63.71 -19.48 63.68 C-21.03 63.66 -22.57 63.64 -24.11 63.62 C-28.16 63.57 -32.21 63.52 -36.26 63.47 C-40.4 63.42 -44.53 63.36 -48.67 63.31 C-56.78 63.2 -64.89 63.1 -73 63 C-73 62.67 -73 62.34 -73 62 C-48.91 62 -24.82 62 0 62 C0 41.54 0 21.08 0 0 Z " fill="#25587E" transform="translate(278,58)"/>
<path d="M0 0 C0.66 0 1.32 0 2 0 C2.02 4.54 2.04 9.08 2.05 13.62 C2.06 15.16 2.07 16.71 2.08 18.25 C2.09 20.47 2.09 22.69 2.1 24.9 C2.1 25.6 2.11 26.29 2.11 27.01 C2.11 28.67 2.06 30.34 2 32 C1 33 1 33 -1.96 33.11 C-3.25 33.11 -4.55 33.1 -5.88 33.1 C-6.91 33.1 -6.91 33.1 -7.96 33.09 C-10.16 33.09 -12.36 33.08 -14.56 33.06 C-16.05 33.06 -17.54 33.05 -19.03 33.05 C-22.69 33.04 -26.34 33.02 -30 33 C-29.88 37.09 -29.76 41.19 -29.63 45.28 C-29.58 46.67 -29.54 48.07 -29.5 49.46 C-29.44 51.46 -29.38 53.46 -29.32 55.46 C-29.28 56.67 -29.24 57.87 -29.21 59.11 C-29.19 61.94 -29.19 61.94 -28 64 C-28.99 64 -29.98 64 -31 64 C-31 53.11 -31 42.22 -31 31 C-20.77 31 -10.54 31 0 31 C0 20.77 0 10.54 0 0 Z " fill="#153E5B" transform="translate(341,121)"/>
<path d="M0 0 C0.66 0 1.32 0 2 0 C2.02 4.54 2.04 9.08 2.05 13.62 C2.06 15.16 2.07 16.71 2.08 18.25 C2.09 20.47 2.09 22.69 2.1 24.9 C2.1 25.6 2.11 26.29 2.11 27.01 C2.11 28.67 2.06 30.34 2 32 C1 33 1 33 -1.96 33.11 C-3.25 33.11 -4.55 33.1 -5.88 33.1 C-6.91 33.1 -6.91 33.1 -7.96 33.09 C-10.16 33.09 -12.36 33.08 -14.56 33.06 C-16.05 33.06 -17.54 33.05 -19.03 33.05 C-22.69 33.04 -26.34 33.02 -30 33 C-30 42.57 -30 52.14 -30 62 C-30.33 62 -30.66 62 -31 62 C-31 51.77 -31 41.54 -31 31 C-20.77 31 -10.54 31 0 31 C0 20.77 0 10.54 0 0 Z " fill="#103651" transform="translate(341,185)"/>
<path d="M0 0 C10.23 0 20.46 0 31 0 C30.67 0.99 30.34 1.98 30 3 C20.76 3 11.52 3 2 3 C2 12.9 2 22.8 2 33 C-8.89 33 -19.78 33 -31 33 C-31 32.67 -31 32.34 -31 32 C-20.77 32 -10.54 32 0 32 C0 21.44 0 10.88 0 0 Z " fill="#113A56" transform="translate(153,310)"/>
<path d="M0 0 C0.66 0 1.32 0 2 0 C2.02 4.68 2.04 9.36 2.05 14.04 C2.06 15.64 2.07 17.23 2.08 18.83 C2.09 21.11 2.09 23.4 2.1 25.68 C2.1 26.4 2.11 27.12 2.11 27.86 C2.11 29.57 2.06 31.29 2 33 C0.21 34.79 -2.48 34.17 -4.9 34.21 C-6.79 34.24 -6.79 34.24 -8.72 34.27 C-10.11 34.28 -11.49 34.3 -12.88 34.32 C-14.29 34.34 -15.7 34.36 -17.11 34.38 C-20.83 34.43 -24.55 34.48 -28.27 34.53 C-32.07 34.58 -35.86 34.64 -39.65 34.69 C-47.1 34.8 -54.55 34.9 -62 35 C-62 34.34 -62 33.68 -62 33 C-31.31 32.5 -31.31 32.5 0 32 C0 21.44 0 10.88 0 0 Z " fill="#0B2C44" transform="translate(341,247)"/>
<path d="M0 0 C1 0 2.01 0 3.04 0.01 C4.93 0.02 4.93 0.02 6.86 0.04 C12.89 0.07 12.89 0.07 19.04 0.1 C19.04 10.66 19.04 21.22 19.04 32.1 C8.81 32.1 -1.42 32.1 -11.96 32.1 C-11.96 31.77 -11.96 31.44 -11.96 31.1 C-2.06 31.1 7.84 31.1 18.04 31.1 C17.55 17.24 17.55 17.24 17.04 3.1 C3.18 2.6 3.18 2.6 -10.96 2.1 C-10.96 1.77 -10.96 1.44 -10.96 1.1 C-7.24 0.23 -3.81 -0.02 0 0 Z " fill="#53AFED" transform="translate(321.95703125,183.90234375)"/>
<path d="M0 0 C1.11 0 2.22 0.01 3.37 0.01 C4.52 0.02 5.67 0.03 6.86 0.04 C8.03 0.04 9.2 0.04 10.4 0.05 C13.28 0.06 16.16 0.08 19.04 0.1 C18.71 1.42 18.38 2.74 18.04 4.1 C17.71 3.77 17.38 3.44 17.04 3.1 C14.97 2.94 12.9 2.85 10.82 2.78 C8.93 2.72 8.93 2.72 7 2.65 C5.66 2.61 4.32 2.57 2.98 2.54 C1.64 2.49 0.29 2.45 -1.05 2.4 C-4.35 2.3 -7.66 2.2 -10.96 2.1 C-10.96 1.77 -10.96 1.44 -10.96 1.1 C-7.24 0.23 -3.81 -0.02 0 0 Z " fill="#3F91C7" transform="translate(321.95703125,183.90234375)"/>
<path d="M0 0 C5.61 0 11.22 0 17 0 C17 0.33 17 0.66 17 1 C12.55 1.5 12.55 1.5 8 2 C7.67 4.64 7.34 7.28 7 10 C6.67 10 6.34 10 6 10 C6 7.03 6 4.06 6 1 C4.02 1 2.04 1 0 1 C0 0.67 0 0.34 0 0 Z " fill="#255A82" transform="translate(115,120)"/>
</svg>
